# xmcd
# 
# Track frame offsets:
#     150
#     23475
#     32712
#     55644
#     87583
#     100740
#     119228
#     139061
#     152553
# 
# Disc length: 2402
# 
# Revision: 1
# Processed by: cddbd v1.5.2PL0 Copyright (c) Steve Scherf et al.
# Submitted via: fre:ac v1.0.31
# 
DISCID=6e096009
DTITLE=The Feelies - Crazy Rhythms
DYEAR=1980
DGENRE=New Wave
TTITLE0=The Boy with the Perpetual Nervousness
TTITLE1=Fa Cé-la
TTITLE2=Loveless Love
TTITLE3=Forces at Work
TTITLE4=Original Love
TTITLE5=Everbody's Got Something to Hide (Except for Me and My Monkey)
TTITLE6=Moscow Nights
TTITLE7=Raised Eyebrows
TTITLE8=Crazy Rhythms
EXTD=
EXTT0=
EXTT1=
EXTT2=
EXTT3=
EXTT4=
EXTT5=
EXTT6=
EXTT7=
EXTT8=
PLAYORDER=
